# Blender v2.78 (sub 0) OBJ File: ''
# www.blender.org
o Cube
v 1.000000 -1.000000 -1.000000
v 1.000000 -1.000000 1.000000
v -1.000000 -1.000000 1.000000
v -1.000000 -1.000000 -1.000000
v 0.832647 0.817211 -0.832646
v 0.832646 0.817211 0.832647
v -0.832647 0.817211 0.832646
v -0.832646 0.817211 -0.832646
v 1.000000 -1.000000 0.000000
v 0.000000 -1.000000 -1.000000
v 1.000000 0.000000 -1.000000
v 0.000000 -1.000000 1.000000
v 1.000000 0.000000 1.000000
v -1.000000 -1.000000 -0.000000
v -1.000000 0.000000 1.000000
v -1.000000 0.000000 -1.000000
v 1.000000 1.000000 0.000001
v 0.000000 1.000000 -1.000000
v -0.000001 1.000000 1.000000
v -1.000000 1.000000 -0.000000
v 0.000000 0.000000 -1.000000
v -1.000000 0.000000 -0.000000
v -0.000000 0.000000 1.000000
v 1.000000 0.000000 0.000000
v 0.000000 -1.000000 -0.000000
v 1.000000 -1.000000 0.500000
v -0.500000 -1.000000 -1.000000
v 1.000000 0.500000 -1.000000
v -0.500000 -1.000000 1.000000
v 1.000000 0.500000 1.000000
v -1.000000 -1.000000 -0.500000
v -1.000000 0.500000 1.000000
v -1.000000 0.500000 -1.000000
v 1.000000 1.000000 0.500001
v -0.500000 1.000000 -1.000000
v -0.500000 1.000000 1.000000
v -1.000000 1.000000 -0.500000
v 1.000000 -1.000000 -0.500000
v 0.500000 -1.000000 -1.000000
v 1.000000 -0.500000 -1.000000
v 0.500000 -1.000000 1.000000
v 1.000000 -0.500000 1.000000
v -1.000000 -1.000000 0.500000
v -1.000000 -0.500000 1.000000
v -1.000000 -0.500000 -1.000000
v 1.000000 1.000000 -0.499999
v 0.500000 1.000000 -1.000000
v 0.499999 1.000000 1.000000
v -1.000000 1.000000 0.500000
v -0.500000 0.000000 -1.000000
v 0.500000 0.000000 -1.000000
v 0.000000 0.500000 -1.000000
v 0.000000 -0.500000 -1.000000
v -1.000000 0.000000 -0.500000
v -1.000000 0.000000 0.500000
v -1.000000 -0.500000 -0.000000
v -1.000000 0.500000 -0.000000
v -0.500000 0.000000 1.000000
v 0.500000 0.000000 1.000000
v -0.000000 -0.500000 1.000000
v -0.000000 0.500000 1.000000
v 1.000000 0.000000 0.500000
v 1.000000 0.000000 -0.500000
v 1.000000 -0.500000 0.000000
v 1.000000 0.500000 0.000000
v -0.000000 1.000000 0.500000
v 0.000000 1.000000 -0.500000
v 0.500000 1.000000 0.000000
v -0.500000 1.000000 0.000000
v -0.500000 -1.000000 -0.000000
v 0.500000 -1.000000 -0.000000
v 0.000000 -1.000000 -0.500000
v 0.000000 -1.000000 0.500000
v 0.500000 -1.000000 0.500000
v 0.500000 -1.000000 -0.500000
v -0.500000 -1.000000 -0.500000
v -0.500000 1.000000 -0.500000
v 0.500000 1.000000 -0.500000
v 0.500000 1.000000 0.500000
v 1.000000 0.500000 -0.500000
v 1.000000 -0.500000 -0.500000
v 1.000000 -0.500000 0.500000
v 0.500000 0.500000 1.000000
v 0.500000 -0.500000 1.000000
v -0.500000 -0.500000 1.000000
v -1.000000 0.500000 0.500000
v -1.000000 -0.500000 0.500000
v -1.000000 -0.500000 -0.500000
v 0.500000 -0.500000 -1.000000
v 0.500000 0.500000 -1.000000
v -0.500000 0.500000 -1.000000
v -0.500000 -0.500000 -1.000000
v -1.000000 0.500000 -0.500000
v -0.500000 0.500000 1.000000
v 1.000000 0.500000 0.500000
v -0.500000 1.000000 0.500000
v -0.500000 -1.000000 0.500000
v 0.000000 2.510726 -0.500000
v -0.500000 2.510726 0.000000
v -0.000000 2.510726 0.500000
v 0.500000 2.510726 0.000000
v -0.500000 2.510726 -0.500000
v 0.500000 2.510726 -0.500000
v 0.500000 2.510726 0.500000
v -0.500000 2.510726 0.500000
v 0.000000 3.292879 -1.351266
v -0.000000 3.881138 0.000000
v -1.351266 3.292879 -0.000000
v -0.000001 3.292879 1.351266
v 1.351266 3.292879 0.000001
v -1.351266 3.110965 -1.351266
v 1.351266 3.110965 -1.351265
v 1.351265 3.110965 1.351267
v -1.351267 3.110965 1.351265
vt 0.3213 0.5338
vt 0.3540 0.5010
vt 0.3540 0.5338
vt 0.4407 0.3226
vt 0.4343 0.2929
vt 0.4589 0.2919
vt 0.1950 0.2660
vt 0.1756 0.2928
vt 0.1616 0.2691
vt 0.7298 0.2615
vt 0.7355 0.2898
vt 0.7103 0.2895
vt 0.3769 0.2660
vt 0.3818 0.2945
vt 0.3575 0.2928
vt 0.6050 0.1660
vt 0.6379 0.2006
vt 0.6043 0.1998
vt 0.6037 0.2331
vt 0.6352 0.2677
vt 0.6028 0.2654
vt 0.5378 0.2337
vt 0.5715 0.2645
vt 0.5401 0.2667
vt 0.5364 0.1655
vt 0.5708 0.1994
vt 0.5368 0.1998
vt 0.3750 0.2332
vt 0.3400 0.2004
vt 0.3743 0.1996
vt 0.4409 0.2332
vt 0.4080 0.1994
vt 0.4416 0.1998
vt 0.4079 0.2644
vt 0.4396 0.2657
vt 0.7275 0.2285
vt 0.6920 0.1956
vt 0.7265 0.1947
vt 0.7934 0.2279
vt 0.7605 0.1943
vt 0.7940 0.1947
vt 0.7880 0.2875
vt 0.7612 0.2594
vt 0.7925 0.2603
vt 0.1932 0.2332
vt 0.1582 0.2004
vt 0.1924 0.1996
vt 0.2590 0.2332
vt 0.2262 0.1994
vt 0.2598 0.1998
vt 0.2525 0.2929
vt 0.2261 0.2644
vt 0.2578 0.2657
vt 0.7964 0.3146
vt 0.7623 0.2889
vt 0.4079 0.3242
vt 0.3740 0.4234
vt 0.3749 0.3222
vt 0.4080 0.2940
vt 0.3868 0.5338
vt 0.4196 0.5010
vt 0.4196 0.5338
vt 0.3868 0.5993
vt 0.4196 0.5665
vt 0.4196 0.5993
vt 0.3540 0.5993
vt 0.3213 0.5665
vt 0.3540 0.5665
vt 0.3868 0.5665
vt 0.3868 0.6321
vt 0.3540 0.6321
vt 0.3213 0.5993
vt 0.4524 0.5993
vt 0.4524 0.5665
vt 0.4196 0.6321
vt 0.4524 0.6321
vt 0.4524 0.5010
vt 0.4524 0.5338
vt 0.7724 0.4179
vt 0.7641 0.3191
vt 0.5983 0.2927
vt 0.5743 0.3242
vt 0.5726 0.2941
vt 0.2588 0.3226
vt 0.2262 0.2940
vt 0.5206 0.2946
vt 0.5458 0.2949
vt 0.5413 0.3251
vt 0.8116 0.2853
vt 0.2261 0.3242
vt 0.1999 0.2945
vt 0.4074 0.4235
vt 0.2262 0.2325
vt 0.2909 0.2685
vt 0.2926 0.2345
vt 0.2771 0.2919
vt 0.2264 0.1655
vt 0.2604 0.1660
vt 0.2935 0.2006
vt 0.2943 0.1667
vt 0.1576 0.1659
vt 0.1921 0.1655
vt 0.7607 0.2276
vt 0.8249 0.2625
vt 0.8266 0.2291
vt 0.7606 0.1603
vt 0.7947 0.1609
vt 0.8276 0.1955
vt 0.8284 0.1617
vt 0.6913 0.1609
vt 0.7261 0.1603
vt 0.4080 0.2325
vt 0.4727 0.2685
vt 0.4744 0.2345
vt 0.4082 0.1655
vt 0.4422 0.1660
vt 0.4754 0.2006
vt 0.4761 0.1667
vt 0.3394 0.1659
vt 0.3739 0.1655
vt 0.5710 0.2327
vt 0.5023 0.2007
vt 0.5035 0.2355
vt 0.5016 0.1660
vt 0.5060 0.2703
vt 0.6219 0.2904
vt 0.6369 0.2343
vt 0.5709 0.1655
vt 0.3411 0.2348
vt 0.6931 0.2304
vt 0.1593 0.2348
vt 0.7310 0.3200
vt 0.6067 0.3197
vt 0.5827 0.4230
vt 0.3868 0.5010
vt 0.6159 0.4200
vt 0.5894 0.4999
vt 0.5494 0.4259
vt 0.4983 0.4998
vt 0.8056 0.4149
vt 0.7792 0.4947
vt 0.7391 0.4207
vt 0.6881 0.4947
vt 0.1922 0.4234
vt 0.1931 0.3222
vt 0.2256 0.4235
vt 0.2278 0.6865
vt 0.3202 0.5941
vt 0.3210 0.6873
vt 0.1355 0.5941
vt 0.2278 0.5941
vt 0.2278 0.5018
vt 0.3210 0.5010
vt 0.4408 0.4235
vt 0.4073 0.5007
vt 0.2254 0.5007
vt 0.1347 0.4925
vt 0.2590 0.4235
vt 0.3165 0.4925
vt 0.6957 0.2652
vt 0.3434 0.2691
vt 0.3213 0.5010
vt 0.6387 0.1669
vt 0.3213 0.6321
vt 0.6790 0.4839
vt 0.8688 0.4787
vt 0.1347 0.6873
vt 0.1347 0.5010
vt 0.4981 0.4928
vt 0.3162 0.4928
vn 0.0000 -1.0000 0.0000
vn -0.0000 0.8764 0.4816
vn 0.8845 0.4666 0.0000
vn -0.4494 -0.0000 0.8933
vn -0.8933 -0.0000 -0.4494
vn 0.0000 0.0000 -1.0000
vn -1.0000 0.0000 -0.0000
vn -0.0000 0.0000 1.0000
vn 1.0000 0.0000 0.0000
vn 0.0000 1.0000 0.0000
vn 0.0000 0.8764 -0.4816
vn 0.4816 0.8764 0.0000
vn 0.8933 -0.0000 -0.4494
vn 0.4494 -0.0000 0.8933
vn -0.8933 0.0000 0.4494
vn 0.0000 0.4666 -0.8845
vn 0.0000 -0.7364 -0.6766
vn -0.1026 -0.7618 -0.6397
vn -0.0000 -0.7364 0.6766
vn 0.1026 -0.7618 0.6397
vn 0.1322 0.9824 -0.1322
vn -0.3707 0.8516 -0.3707
vn 0.1322 0.9824 0.1322
vn -0.3707 0.8516 0.3707
vn -0.6766 -0.7364 0.0000
vn 0.6397 -0.7618 -0.1026
vn 0.6766 -0.7364 0.0000
vn -0.6397 -0.7618 0.1026
vn -0.0000 0.4666 0.8845
vn -0.8845 0.4666 -0.0000
vn -0.4816 0.8764 -0.0000
vn -0.4494 0.0000 -0.8933
vn 0.4494 0.0000 -0.8933
vn 0.8933 0.0000 0.4494
vn 0.1026 -0.7618 -0.6397
vn -0.1026 -0.7618 0.6397
vn 0.3707 0.8516 -0.3707
vn -0.1322 0.9824 -0.1322
vn 0.3707 0.8516 0.3707
vn -0.1322 0.9824 0.1322
vn -0.6397 -0.7618 -0.1026
vn 0.6397 -0.7618 0.1026
s off
f 29/1/1 43/2/1 97/3/1
f 96/4/2 49/5/2 7/6/2
f 95/7/3 6/8/3 30/9/3
f 94/10/4 36/11/4 7/12/4
f 93/13/5 37/14/5 8/15/5
f 27/16/6 45/17/6 92/18/6
f 50/19/6 33/20/6 91/21/6
f 51/22/6 52/23/6 90/24/6
f 39/25/6 53/26/6 89/27/6
f 54/28/7 45/29/7 88/30/7
f 55/31/7 56/32/7 87/33/7
f 49/5/7 57/34/7 86/35/7
f 58/36/8 44/37/8 85/38/8
f 59/39/8 60/40/8 84/41/8
f 48/42/8 61/43/8 83/44/8
f 62/45/9 42/46/9 82/47/9
f 63/48/9 64/49/9 81/50/9
f 46/51/9 65/52/9 80/53/9
f 79/54/10 19/55/10 48/42/10
f 69/56/7 102/57/7 77/58/7
f 77/58/10 20/59/10 69/56/10
f 70/60/1 31/61/1 76/62/1
f 71/63/1 72/64/1 75/65/1
f 74/66/1 12/67/1 73/68/1
f 71/63/1 73/68/1 25/69/1
f 9/70/1 74/66/1 71/63/1
f 26/71/1 41/72/1 74/66/1
f 39/73/1 72/64/1 10/74/1
f 38/75/1 39/73/1 1/76/1
f 38/75/1 71/63/1 75/65/1
f 76/62/1 4/77/1 27/78/1
f 10/74/1 76/62/1 27/78/1
f 72/64/1 70/60/1 76/62/1
f 79/54/8 100/79/8 66/80/8
f 35/81/10 67/82/10 18/83/10
f 8/15/11 37/14/11 77/58/11
f 78/84/10 17/85/10 46/51/10
f 5/86/12 47/87/12 78/88/12
f 18/83/10 78/88/10 47/87/10
f 79/54/12 48/42/12 6/89/12
f 68/90/10 34/91/10 17/85/10
f 96/4/7 99/92/7 69/56/7
f 80/53/9 24/93/9 63/48/9
f 28/94/9 63/48/9 11/95/9
f 5/96/13 46/51/13 80/53/13
f 81/50/9 9/97/9 38/98/9
f 40/99/9 38/98/9 1/100/9
f 11/95/9 81/50/9 40/99/9
f 82/47/9 2/101/9 26/102/9
f 64/49/9 26/102/9 9/97/9
f 24/93/9 82/47/9 64/49/9
f 83/44/8 23/103/8 59/39/8
f 30/104/8 59/39/8 13/105/8
f 6/89/14 48/42/14 83/44/14
f 84/41/8 12/106/8 41/107/8
f 42/108/8 41/107/8 2/109/8
f 13/105/8 84/41/8 42/108/8
f 85/38/8 3/110/8 29/111/8
f 60/40/8 29/111/8 12/106/8
f 23/103/8 85/38/8 60/40/8
f 86/35/7 22/112/7 55/31/7
f 32/113/7 55/31/7 15/114/7
f 7/6/15 49/5/15 86/35/15
f 87/33/7 14/115/7 43/116/7
f 44/117/7 43/116/7 3/118/7
f 15/114/7 87/33/7 44/117/7
f 88/30/7 4/119/7 31/120/7
f 14/115/7 88/30/7 31/120/7
f 22/112/7 88/30/7 56/32/7
f 89/27/6 21/121/6 51/22/6
f 40/122/6 51/22/6 11/123/6
f 1/124/6 89/27/6 40/122/6
f 90/24/6 18/83/6 47/87/6
f 5/86/16 28/125/16 90/24/16
f 11/123/6 90/24/6 28/125/6
f 91/21/16 33/20/16 8/126/16
f 52/23/6 35/81/6 18/83/6
f 21/121/6 91/21/6 52/23/6
f 50/19/6 45/17/6 16/127/6
f 53/26/6 50/19/6 21/121/6
f 10/128/6 92/18/6 53/26/6
f 93/13/7 16/129/7 54/28/7
f 22/112/7 93/13/7 54/28/7
f 57/34/7 37/14/7 93/13/7
f 94/10/8 15/130/8 58/36/8
f 61/43/8 58/36/8 23/103/8
f 19/55/8 94/10/8 61/43/8
f 95/7/9 13/131/9 62/45/9
f 65/52/9 62/45/9 24/93/9
f 17/85/9 95/7/9 65/52/9
f 96/132/10 19/55/10 66/80/10
f 77/133/6 98/134/6 67/82/6
f 20/59/10 96/4/10 69/56/10
f 97/3/1 14/135/1 70/60/1
f 73/68/1 70/60/1 25/69/1
f 73/68/1 29/1/1 97/3/1
f 102/136/17 106/137/17 98/134/17
f 103/138/18 106/137/18 112/139/18
f 104/140/19 109/141/19 100/79/19
f 105/142/20 109/141/20 114/143/20
f 68/90/9 104/144/9 79/145/9
f 67/82/6 103/138/6 78/88/6
f 66/80/8 105/142/8 96/132/8
f 78/84/9 101/146/9 68/90/9
f 106/147/21 110/148/21 112/149/21
f 106/147/22 108/150/22 107/151/22
f 110/148/23 109/152/23 113/153/23
f 108/150/24 109/152/24 107/151/24
f 105/154/25 108/155/25 99/92/25
f 104/144/26 110/156/26 113/157/26
f 103/158/27 110/156/27 101/146/27
f 102/57/28 108/155/28 111/159/28
f 34/91/2 79/145/2 6/8/2
f 30/104/29 6/89/29 83/44/29
f 32/113/30 7/6/30 86/35/30
f 36/11/31 96/132/31 7/12/31
f 32/160/29 94/10/29 7/12/29
f 35/81/32 91/21/32 8/126/32
f 35/81/31 8/126/31 77/133/31
f 33/161/30 93/13/30 8/15/30
f 46/51/11 5/96/11 78/84/11
f 47/87/33 5/86/33 90/24/33
f 28/94/3 5/96/3 80/53/3
f 29/1/1 3/162/1 43/2/1
f 95/7/34 34/91/34 6/8/34
f 27/16/6 4/163/6 45/17/6
f 50/19/6 16/127/6 33/20/6
f 51/22/6 21/121/6 52/23/6
f 39/25/6 10/128/6 53/26/6
f 54/28/7 16/129/7 45/29/7
f 55/31/7 22/112/7 56/32/7
f 49/5/7 20/59/7 57/34/7
f 58/36/8 15/130/8 44/37/8
f 59/39/8 23/103/8 60/40/8
f 48/42/8 19/55/8 61/43/8
f 62/45/9 13/131/9 42/46/9
f 63/48/9 24/93/9 64/49/9
f 46/51/9 17/85/9 65/52/9
f 79/54/10 66/80/10 19/55/10
f 69/56/7 99/92/7 102/57/7
f 77/58/10 37/14/10 20/59/10
f 70/60/1 14/135/1 31/61/1
f 71/63/1 25/69/1 72/64/1
f 74/66/1 41/72/1 12/67/1
f 71/63/1 74/66/1 73/68/1
f 9/70/1 26/71/1 74/66/1
f 26/71/1 2/164/1 41/72/1
f 39/73/1 75/65/1 72/64/1
f 38/75/1 75/65/1 39/73/1
f 38/75/1 9/70/1 71/63/1
f 76/62/1 31/61/1 4/77/1
f 10/74/1 72/64/1 76/62/1
f 72/64/1 25/69/1 70/60/1
f 79/54/8 104/140/8 100/79/8
f 35/81/10 77/133/10 67/82/10
f 78/84/10 68/90/10 17/85/10
f 18/83/10 67/82/10 78/88/10
f 68/90/10 79/145/10 34/91/10
f 96/4/7 105/154/7 99/92/7
f 80/53/9 65/52/9 24/93/9
f 28/94/9 80/53/9 63/48/9
f 81/50/9 64/49/9 9/97/9
f 40/99/9 81/50/9 38/98/9
f 11/95/9 63/48/9 81/50/9
f 82/47/9 42/46/9 2/101/9
f 64/49/9 82/47/9 26/102/9
f 24/93/9 62/45/9 82/47/9
f 83/44/8 61/43/8 23/103/8
f 30/104/8 83/44/8 59/39/8
f 84/41/8 60/40/8 12/106/8
f 42/108/8 84/41/8 41/107/8
f 13/105/8 59/39/8 84/41/8
f 85/38/8 44/37/8 3/110/8
f 60/40/8 85/38/8 29/111/8
f 23/103/8 58/36/8 85/38/8
f 86/35/7 57/34/7 22/112/7
f 32/113/7 86/35/7 55/31/7
f 87/33/7 56/32/7 14/115/7
f 44/117/7 87/33/7 43/116/7
f 15/114/7 55/31/7 87/33/7
f 88/30/7 45/29/7 4/119/7
f 14/115/7 56/32/7 88/30/7
f 22/112/7 54/28/7 88/30/7
f 89/27/6 53/26/6 21/121/6
f 40/122/6 89/27/6 51/22/6
f 1/124/6 39/25/6 89/27/6
f 90/24/6 52/23/6 18/83/6
f 11/123/6 51/22/6 90/24/6
f 52/23/6 91/21/6 35/81/6
f 21/121/6 50/19/6 91/21/6
f 50/19/6 92/18/6 45/17/6
f 53/26/6 92/18/6 50/19/6
f 10/128/6 27/16/6 92/18/6
f 93/13/7 33/161/7 16/129/7
f 22/112/7 57/34/7 93/13/7
f 57/34/7 20/59/7 37/14/7
f 94/10/8 32/160/8 15/130/8
f 61/43/8 94/10/8 58/36/8
f 19/55/8 36/11/8 94/10/8
f 95/7/9 30/9/9 13/131/9
f 65/52/9 95/7/9 62/45/9
f 17/85/9 34/91/9 95/7/9
f 96/132/10 36/11/10 19/55/10
f 77/133/6 102/136/6 98/134/6
f 20/59/10 49/5/10 96/4/10
f 97/3/1 43/2/1 14/135/1
f 73/68/1 97/3/1 70/60/1
f 73/68/1 12/67/1 29/1/1
f 102/136/35 111/165/35 106/137/35
f 103/138/17 98/134/17 106/137/17
f 104/140/36 113/166/36 109/141/36
f 105/142/19 100/79/19 109/141/19
f 68/90/9 101/146/9 104/144/9
f 67/82/6 98/134/6 103/138/6
f 66/80/8 100/79/8 105/142/8
f 78/84/9 103/158/9 101/146/9
f 106/147/37 107/151/37 110/148/37
f 106/147/38 111/167/38 108/150/38
f 110/148/39 107/151/39 109/152/39
f 108/150/40 114/168/40 109/152/40
f 105/154/41 114/169/41 108/155/41
f 104/144/27 101/146/27 110/156/27
f 103/158/42 112/170/42 110/156/42
f 102/57/25 99/92/25 108/155/25
